<?xml version="1.0" encoding="utf-8" standalone="no"?>
<!DOCTYPE svg PUBLIC "-//W3C//DTD SVG 1.1//EN"
  "http://www.w3.org/Graphics/SVG/1.1/DTD/svg11.dtd">
<svg height="345.6pt" version="1.1" viewBox="0 0 460.8 345.6" width="460.8pt" xmlns="http://www.w3.org/2000/svg" xmlns:xlink="http://www.w3.org/1999/xlink">
 <metadata>
  <rdf:RDF xmlns:cc="http://creativecommons.org/ns#" xmlns:dc="http://purl.org/dc/elements/1.1/" xmlns:rdf="http://www.w3.org/1999/02/22-rdf-syntax-ns#">
   <cc:Work>
    <dc:type rdf:resource="http://purl.org/dc/dcmitype/StillImage"/>
    <dc:date>2022-11-24T21:34:30.314107</dc:date>
    <dc:format>image/svg+xml</dc:format>
    <dc:creator>
     <cc:Agent>
      <dc:title>Matplotlib v3.4.3, https://matplotlib.org/</dc:title>
     </cc:Agent>
    </dc:creator>
   </cc:Work>
  </rdf:RDF>
 </metadata>
 <defs>
  <style type="text/css">*{stroke-linecap:butt;stroke-linejoin:round;}</style>
 </defs>
 <g id="figure_1">
  <g id="patch_1">
   <path d="M 0 345.6 
L 460.8 345.6 
L 460.8 0 
L 0 0 
z
" style="fill:#ffffff;"/>
  </g>
  <g id="axes_1">
   <g id="patch_2">
    <path d="M 57.6 307.584 
L 414.72 307.584 
L 414.72 41.472 
L 57.6 41.472 
z
" style="fill:#ffffff;"/>
   </g>
   <g id="matplotlib.axis_1">
    <g id="xtick_1">
     <g id="line2d_1">
      <path clip-path="url(#pdaea2398d7)" d="M 73.832727 307.584 
L 73.832727 41.472 
" style="fill:none;stroke:#b0b0b0;stroke-linecap:square;stroke-width:0.8;"/>
     </g>
     <g id="line2d_2">
      <defs>
       <path d="M 0 0 
L 0 3.5 
" id="mea8cafcaa3" style="stroke:#000000;stroke-width:0.8;"/>
      </defs>
      <g>
       <use style="stroke:#000000;stroke-width:0.8;" x="73.832727" xlink:href="#mea8cafcaa3" y="307.584"/>
      </g>
     </g>
     <g id="text_1">
      <!-- 0 -->
      <g transform="translate(70.651477 322.182437)scale(0.1 -0.1)">
       <defs>
        <path d="M 2034 4250 
Q 1547 4250 1301 3770 
Q 1056 3291 1056 2328 
Q 1056 1369 1301 889 
Q 1547 409 2034 409 
Q 2525 409 2770 889 
Q 3016 1369 3016 2328 
Q 3016 3291 2770 3770 
Q 2525 4250 2034 4250 
z
M 2034 4750 
Q 2819 4750 3233 4129 
Q 3647 3509 3647 2328 
Q 3647 1150 3233 529 
Q 2819 -91 2034 -91 
Q 1250 -91 836 529 
Q 422 1150 422 2328 
Q 422 3509 836 4129 
Q 1250 4750 2034 4750 
z
" id="DejaVuSans-30" transform="scale(0.015625)"/>
       </defs>
       <use xlink:href="#DejaVuSans-30"/>
      </g>
     </g>
    </g>
    <g id="xtick_2">
     <g id="line2d_3">
      <path clip-path="url(#pdaea2398d7)" d="M 114.434847 307.584 
L 114.434847 41.472 
" style="fill:none;stroke:#b0b0b0;stroke-linecap:square;stroke-width:0.8;"/>
     </g>
     <g id="line2d_4">
      <g>
       <use style="stroke:#000000;stroke-width:0.8;" x="114.434847" xlink:href="#mea8cafcaa3" y="307.584"/>
      </g>
     </g>
     <g id="text_2">
      <!-- 250 -->
      <g transform="translate(104.891097 322.182437)scale(0.1 -0.1)">
       <defs>
        <path d="M 1228 531 
L 3431 531 
L 3431 0 
L 469 0 
L 469 531 
Q 828 903 1448 1529 
Q 2069 2156 2228 2338 
Q 2531 2678 2651 2914 
Q 2772 3150 2772 3378 
Q 2772 3750 2511 3984 
Q 2250 4219 1831 4219 
Q 1534 4219 1204 4116 
Q 875 4013 500 3803 
L 500 4441 
Q 881 4594 1212 4672 
Q 1544 4750 1819 4750 
Q 2544 4750 2975 4387 
Q 3406 4025 3406 3419 
Q 3406 3131 3298 2873 
Q 3191 2616 2906 2266 
Q 2828 2175 2409 1742 
Q 1991 1309 1228 531 
z
" id="DejaVuSans-32" transform="scale(0.015625)"/>
        <path d="M 691 4666 
L 3169 4666 
L 3169 4134 
L 1269 4134 
L 1269 2991 
Q 1406 3038 1543 3061 
Q 1681 3084 1819 3084 
Q 2600 3084 3056 2656 
Q 3513 2228 3513 1497 
Q 3513 744 3044 326 
Q 2575 -91 1722 -91 
Q 1428 -91 1123 -41 
Q 819 9 494 109 
L 494 744 
Q 775 591 1075 516 
Q 1375 441 1709 441 
Q 2250 441 2565 725 
Q 2881 1009 2881 1497 
Q 2881 1984 2565 2268 
Q 2250 2553 1709 2553 
Q 1456 2553 1204 2497 
Q 953 2441 691 2322 
L 691 4666 
z
" id="DejaVuSans-35" transform="scale(0.015625)"/>
       </defs>
       <use xlink:href="#DejaVuSans-32"/>
       <use x="63.623047" xlink:href="#DejaVuSans-35"/>
       <use x="127.246094" xlink:href="#DejaVuSans-30"/>
      </g>
     </g>
    </g>
    <g id="xtick_3">
     <g id="line2d_5">
      <path clip-path="url(#pdaea2398d7)" d="M 155.036966 307.584 
L 155.036966 41.472 
" style="fill:none;stroke:#b0b0b0;stroke-linecap:square;stroke-width:0.8;"/>
     </g>
     <g id="line2d_6">
      <g>
       <use style="stroke:#000000;stroke-width:0.8;" x="155.036966" xlink:href="#mea8cafcaa3" y="307.584"/>
      </g>
     </g>
     <g id="text_3">
      <!-- 500 -->
      <g transform="translate(145.493216 322.182437)scale(0.1 -0.1)">
       <use xlink:href="#DejaVuSans-35"/>
       <use x="63.623047" xlink:href="#DejaVuSans-30"/>
       <use x="127.246094" xlink:href="#DejaVuSans-30"/>
      </g>
     </g>
    </g>
    <g id="xtick_4">
     <g id="line2d_7">
      <path clip-path="url(#pdaea2398d7)" d="M 195.639085 307.584 
L 195.639085 41.472 
" style="fill:none;stroke:#b0b0b0;stroke-linecap:square;stroke-width:0.8;"/>
     </g>
     <g id="line2d_8">
      <g>
       <use style="stroke:#000000;stroke-width:0.8;" x="195.639085" xlink:href="#mea8cafcaa3" y="307.584"/>
      </g>
     </g>
     <g id="text_4">
      <!-- 750 -->
      <g transform="translate(186.095335 322.182437)scale(0.1 -0.1)">
       <defs>
        <path d="M 525 4666 
L 3525 4666 
L 3525 4397 
L 1831 0 
L 1172 0 
L 2766 4134 
L 525 4134 
L 525 4666 
z
" id="DejaVuSans-37" transform="scale(0.015625)"/>
       </defs>
       <use xlink:href="#DejaVuSans-37"/>
       <use x="63.623047" xlink:href="#DejaVuSans-35"/>
       <use x="127.246094" xlink:href="#DejaVuSans-30"/>
      </g>
     </g>
    </g>
    <g id="xtick_5">
     <g id="line2d_9">
      <path clip-path="url(#pdaea2398d7)" d="M 236.241204 307.584 
L 236.241204 41.472 
" style="fill:none;stroke:#b0b0b0;stroke-linecap:square;stroke-width:0.8;"/>
     </g>
     <g id="line2d_10">
      <g>
       <use style="stroke:#000000;stroke-width:0.8;" x="236.241204" xlink:href="#mea8cafcaa3" y="307.584"/>
      </g>
     </g>
     <g id="text_5">
      <!-- 1000 -->
      <g transform="translate(223.516204 322.182437)scale(0.1 -0.1)">
       <defs>
        <path d="M 794 531 
L 1825 531 
L 1825 4091 
L 703 3866 
L 703 4441 
L 1819 4666 
L 2450 4666 
L 2450 531 
L 3481 531 
L 3481 0 
L 794 0 
L 794 531 
z
" id="DejaVuSans-31" transform="scale(0.015625)"/>
       </defs>
       <use xlink:href="#DejaVuSans-31"/>
       <use x="63.623047" xlink:href="#DejaVuSans-30"/>
       <use x="127.246094" xlink:href="#DejaVuSans-30"/>
       <use x="190.869141" xlink:href="#DejaVuSans-30"/>
      </g>
     </g>
    </g>
    <g id="xtick_6">
     <g id="line2d_11">
      <path clip-path="url(#pdaea2398d7)" d="M 276.843323 307.584 
L 276.843323 41.472 
" style="fill:none;stroke:#b0b0b0;stroke-linecap:square;stroke-width:0.8;"/>
     </g>
     <g id="line2d_12">
      <g>
       <use style="stroke:#000000;stroke-width:0.8;" x="276.843323" xlink:href="#mea8cafcaa3" y="307.584"/>
      </g>
     </g>
     <g id="text_6">
      <!-- 1250 -->
      <g transform="translate(264.118323 322.182437)scale(0.1 -0.1)">
       <use xlink:href="#DejaVuSans-31"/>
       <use x="63.623047" xlink:href="#DejaVuSans-32"/>
       <use x="127.246094" xlink:href="#DejaVuSans-35"/>
       <use x="190.869141" xlink:href="#DejaVuSans-30"/>
      </g>
     </g>
    </g>
    <g id="xtick_7">
     <g id="line2d_13">
      <path clip-path="url(#pdaea2398d7)" d="M 317.445443 307.584 
L 317.445443 41.472 
" style="fill:none;stroke:#b0b0b0;stroke-linecap:square;stroke-width:0.8;"/>
     </g>
     <g id="line2d_14">
      <g>
       <use style="stroke:#000000;stroke-width:0.8;" x="317.445443" xlink:href="#mea8cafcaa3" y="307.584"/>
      </g>
     </g>
     <g id="text_7">
      <!-- 1500 -->
      <g transform="translate(304.720443 322.182437)scale(0.1 -0.1)">
       <use xlink:href="#DejaVuSans-31"/>
       <use x="63.623047" xlink:href="#DejaVuSans-35"/>
       <use x="127.246094" xlink:href="#DejaVuSans-30"/>
       <use x="190.869141" xlink:href="#DejaVuSans-30"/>
      </g>
     </g>
    </g>
    <g id="xtick_8">
     <g id="line2d_15">
      <path clip-path="url(#pdaea2398d7)" d="M 358.047562 307.584 
L 358.047562 41.472 
" style="fill:none;stroke:#b0b0b0;stroke-linecap:square;stroke-width:0.8;"/>
     </g>
     <g id="line2d_16">
      <g>
       <use style="stroke:#000000;stroke-width:0.8;" x="358.047562" xlink:href="#mea8cafcaa3" y="307.584"/>
      </g>
     </g>
     <g id="text_8">
      <!-- 1750 -->
      <g transform="translate(345.322562 322.182437)scale(0.1 -0.1)">
       <use xlink:href="#DejaVuSans-31"/>
       <use x="63.623047" xlink:href="#DejaVuSans-37"/>
       <use x="127.246094" xlink:href="#DejaVuSans-35"/>
       <use x="190.869141" xlink:href="#DejaVuSans-30"/>
      </g>
     </g>
    </g>
    <g id="xtick_9">
     <g id="line2d_17">
      <path clip-path="url(#pdaea2398d7)" d="M 398.649681 307.584 
L 398.649681 41.472 
" style="fill:none;stroke:#b0b0b0;stroke-linecap:square;stroke-width:0.8;"/>
     </g>
     <g id="line2d_18">
      <g>
       <use style="stroke:#000000;stroke-width:0.8;" x="398.649681" xlink:href="#mea8cafcaa3" y="307.584"/>
      </g>
     </g>
     <g id="text_9">
      <!-- 2000 -->
      <g transform="translate(385.924681 322.182437)scale(0.1 -0.1)">
       <use xlink:href="#DejaVuSans-32"/>
       <use x="63.623047" xlink:href="#DejaVuSans-30"/>
       <use x="127.246094" xlink:href="#DejaVuSans-30"/>
       <use x="190.869141" xlink:href="#DejaVuSans-30"/>
      </g>
     </g>
    </g>
   </g>
   <g id="matplotlib.axis_2">
    <g id="ytick_1">
     <g id="line2d_19">
      <path clip-path="url(#pdaea2398d7)" d="M 57.6 274.951495 
L 414.72 274.951495 
" style="fill:none;stroke:#b0b0b0;stroke-linecap:square;stroke-width:0.8;"/>
     </g>
     <g id="line2d_20">
      <defs>
       <path d="M 0 0 
L -3.5 0 
" id="ma8e0741dbf" style="stroke:#000000;stroke-width:0.8;"/>
      </defs>
      <g>
       <use style="stroke:#000000;stroke-width:0.8;" x="57.6" xlink:href="#ma8e0741dbf" y="274.951495"/>
      </g>
     </g>
     <g id="text_10">
      <!-- 0.5 -->
      <g transform="translate(34.696875 278.750713)scale(0.1 -0.1)">
       <defs>
        <path d="M 684 794 
L 1344 794 
L 1344 0 
L 684 0 
L 684 794 
z
" id="DejaVuSans-2e" transform="scale(0.015625)"/>
       </defs>
       <use xlink:href="#DejaVuSans-30"/>
       <use x="63.623047" xlink:href="#DejaVuSans-2e"/>
       <use x="95.410156" xlink:href="#DejaVuSans-35"/>
      </g>
     </g>
    </g>
    <g id="ytick_2">
     <g id="line2d_21">
      <path clip-path="url(#pdaea2398d7)" d="M 57.6 227.676464 
L 414.72 227.676464 
" style="fill:none;stroke:#b0b0b0;stroke-linecap:square;stroke-width:0.8;"/>
     </g>
     <g id="line2d_22">
      <g>
       <use style="stroke:#000000;stroke-width:0.8;" x="57.6" xlink:href="#ma8e0741dbf" y="227.676464"/>
      </g>
     </g>
     <g id="text_11">
      <!-- 0.6 -->
      <g transform="translate(34.696875 231.475683)scale(0.1 -0.1)">
       <defs>
        <path d="M 2113 2584 
Q 1688 2584 1439 2293 
Q 1191 2003 1191 1497 
Q 1191 994 1439 701 
Q 1688 409 2113 409 
Q 2538 409 2786 701 
Q 3034 994 3034 1497 
Q 3034 2003 2786 2293 
Q 2538 2584 2113 2584 
z
M 3366 4563 
L 3366 3988 
Q 3128 4100 2886 4159 
Q 2644 4219 2406 4219 
Q 1781 4219 1451 3797 
Q 1122 3375 1075 2522 
Q 1259 2794 1537 2939 
Q 1816 3084 2150 3084 
Q 2853 3084 3261 2657 
Q 3669 2231 3669 1497 
Q 3669 778 3244 343 
Q 2819 -91 2113 -91 
Q 1303 -91 875 529 
Q 447 1150 447 2328 
Q 447 3434 972 4092 
Q 1497 4750 2381 4750 
Q 2619 4750 2861 4703 
Q 3103 4656 3366 4563 
z
" id="DejaVuSans-36" transform="scale(0.015625)"/>
       </defs>
       <use xlink:href="#DejaVuSans-30"/>
       <use x="63.623047" xlink:href="#DejaVuSans-2e"/>
       <use x="95.410156" xlink:href="#DejaVuSans-36"/>
      </g>
     </g>
    </g>
    <g id="ytick_3">
     <g id="line2d_23">
      <path clip-path="url(#pdaea2398d7)" d="M 57.6 180.401433 
L 414.72 180.401433 
" style="fill:none;stroke:#b0b0b0;stroke-linecap:square;stroke-width:0.8;"/>
     </g>
     <g id="line2d_24">
      <g>
       <use style="stroke:#000000;stroke-width:0.8;" x="57.6" xlink:href="#ma8e0741dbf" y="180.401433"/>
      </g>
     </g>
     <g id="text_12">
      <!-- 0.7 -->
      <g transform="translate(34.696875 184.200652)scale(0.1 -0.1)">
       <use xlink:href="#DejaVuSans-30"/>
       <use x="63.623047" xlink:href="#DejaVuSans-2e"/>
       <use x="95.410156" xlink:href="#DejaVuSans-37"/>
      </g>
     </g>
    </g>
    <g id="ytick_4">
     <g id="line2d_25">
      <path clip-path="url(#pdaea2398d7)" d="M 57.6 133.126403 
L 414.72 133.126403 
" style="fill:none;stroke:#b0b0b0;stroke-linecap:square;stroke-width:0.8;"/>
     </g>
     <g id="line2d_26">
      <g>
       <use style="stroke:#000000;stroke-width:0.8;" x="57.6" xlink:href="#ma8e0741dbf" y="133.126403"/>
      </g>
     </g>
     <g id="text_13">
      <!-- 0.8 -->
      <g transform="translate(34.696875 136.925622)scale(0.1 -0.1)">
       <defs>
        <path d="M 2034 2216 
Q 1584 2216 1326 1975 
Q 1069 1734 1069 1313 
Q 1069 891 1326 650 
Q 1584 409 2034 409 
Q 2484 409 2743 651 
Q 3003 894 3003 1313 
Q 3003 1734 2745 1975 
Q 2488 2216 2034 2216 
z
M 1403 2484 
Q 997 2584 770 2862 
Q 544 3141 544 3541 
Q 544 4100 942 4425 
Q 1341 4750 2034 4750 
Q 2731 4750 3128 4425 
Q 3525 4100 3525 3541 
Q 3525 3141 3298 2862 
Q 3072 2584 2669 2484 
Q 3125 2378 3379 2068 
Q 3634 1759 3634 1313 
Q 3634 634 3220 271 
Q 2806 -91 2034 -91 
Q 1263 -91 848 271 
Q 434 634 434 1313 
Q 434 1759 690 2068 
Q 947 2378 1403 2484 
z
M 1172 3481 
Q 1172 3119 1398 2916 
Q 1625 2713 2034 2713 
Q 2441 2713 2670 2916 
Q 2900 3119 2900 3481 
Q 2900 3844 2670 4047 
Q 2441 4250 2034 4250 
Q 1625 4250 1398 4047 
Q 1172 3844 1172 3481 
z
" id="DejaVuSans-38" transform="scale(0.015625)"/>
       </defs>
       <use xlink:href="#DejaVuSans-30"/>
       <use x="63.623047" xlink:href="#DejaVuSans-2e"/>
       <use x="95.410156" xlink:href="#DejaVuSans-38"/>
      </g>
     </g>
    </g>
    <g id="ytick_5">
     <g id="line2d_27">
      <path clip-path="url(#pdaea2398d7)" d="M 57.6 85.851372 
L 414.72 85.851372 
" style="fill:none;stroke:#b0b0b0;stroke-linecap:square;stroke-width:0.8;"/>
     </g>
     <g id="line2d_28">
      <g>
       <use style="stroke:#000000;stroke-width:0.8;" x="57.6" xlink:href="#ma8e0741dbf" y="85.851372"/>
      </g>
     </g>
     <g id="text_14">
      <!-- 0.9 -->
      <g transform="translate(34.696875 89.650591)scale(0.1 -0.1)">
       <defs>
        <path d="M 703 97 
L 703 672 
Q 941 559 1184 500 
Q 1428 441 1663 441 
Q 2288 441 2617 861 
Q 2947 1281 2994 2138 
Q 2813 1869 2534 1725 
Q 2256 1581 1919 1581 
Q 1219 1581 811 2004 
Q 403 2428 403 3163 
Q 403 3881 828 4315 
Q 1253 4750 1959 4750 
Q 2769 4750 3195 4129 
Q 3622 3509 3622 2328 
Q 3622 1225 3098 567 
Q 2575 -91 1691 -91 
Q 1453 -91 1209 -44 
Q 966 3 703 97 
z
M 1959 2075 
Q 2384 2075 2632 2365 
Q 2881 2656 2881 3163 
Q 2881 3666 2632 3958 
Q 2384 4250 1959 4250 
Q 1534 4250 1286 3958 
Q 1038 3666 1038 3163 
Q 1038 2656 1286 2365 
Q 1534 2075 1959 2075 
z
" id="DejaVuSans-39" transform="scale(0.015625)"/>
       </defs>
       <use xlink:href="#DejaVuSans-30"/>
       <use x="63.623047" xlink:href="#DejaVuSans-2e"/>
       <use x="95.410156" xlink:href="#DejaVuSans-39"/>
      </g>
     </g>
    </g>
   </g>
   <g id="line2d_29">
    <path clip-path="url(#pdaea2398d7)" d="M 73.832727 295.488 
L 74.319953 237.78042 
L 74.969587 213.13663 
L 75.131995 211.288343 
L 75.294404 201.430822 
L 75.456812 208.61858 
L 76.106446 194.243036 
L 76.268854 197.93961 
L 76.431263 196.707409 
L 76.75608 188.903537 
L 76.918488 189.519651 
L 77.080897 188.698175 
L 77.243305 186.028439 
L 77.405714 187.260612 
L 77.568122 184.796239 
L 77.730531 193.832312 
L 78.055348 182.742589 
L 78.217756 191.5733 
L 78.380165 188.698175 
L 78.542573 189.519651 
L 78.704982 187.05525 
L 78.86739 179.251378 
L 79.029799 180.483578 
L 79.192207 175.554832 
L 79.354615 174.527993 
L 79.679432 183.769428 
L 79.841841 182.126503 
L 80.329066 172.06362 
L 80.653883 174.527993 
L 80.816292 168.77777 
L 80.9787 173.706545 
L 81.141109 166.518759 
L 81.465926 169.188494 
L 81.628334 166.724121 
L 81.790743 166.929483 
L 81.953151 162.616822 
L 82.11556 165.902672 
L 82.277968 166.518759 
L 82.440377 165.902672 
L 82.602785 164.465109 
L 82.765194 167.134845 
L 82.927602 163.849023 
L 83.09001 163.438271 
L 83.252419 163.438271 
L 83.414827 168.572408 
L 83.577236 162.000736 
L 83.739644 167.956321 
L 83.902053 156.455875 
L 84.064461 163.232909 
L 84.22687 158.0988 
L 84.389278 160.152449 
L 84.551687 164.054385 
L 84.714095 165.081196 
L 84.876504 160.357811 
L 85.038912 168.367046 
L 85.526138 159.741725 
L 85.688546 159.330972 
L 85.850955 159.330972 
L 86.013363 160.973897 
L 86.175772 158.304162 
L 86.33818 163.232909 
L 86.987814 151.116376 
L 87.150222 157.482685 
L 87.475039 154.81295 
L 87.637448 149.062727 
L 87.799856 158.0988 
L 87.962265 152.348577 
L 88.124673 155.018312 
L 88.44949 178.429929 
L 88.611899 160.357811 
L 88.774307 160.563173 
L 89.099124 148.446641 
L 89.261533 151.732462 
L 89.423941 144.13398 
L 89.58635 149.678813 
L 89.748758 148.857365 
L 90.073575 145.571515 
L 90.235983 145.776877 
L 90.398392 150.50029 
L 90.723209 144.13398 
L 90.885617 145.160791 
L 91.048026 143.312504 
L 91.210434 145.776877 
L 91.372843 141.053492 
L 91.535251 140.642768 
L 91.69766 137.973005 
L 91.860068 137.767643 
L 92.022477 133.454982 
L 92.184885 137.973005 
L 92.347294 138.178395 
L 92.509702 134.892545 
L 92.672111 136.124746 
L 92.996928 131.195971 
L 93.321745 133.660344 
L 93.484153 133.24962 
L 93.646561 134.892545 
L 93.80897 141.258855 
L 94.133787 136.124746 
L 94.296195 136.330108 
L 94.621012 132.428172 
L 94.783421 133.24962 
L 94.945829 134.892545 
L 95.270646 144.955429 
L 95.595463 136.330108 
L 95.757872 137.767643 
L 96.082689 133.660344 
L 96.245097 132.633534 
L 96.407506 130.169132 
L 96.569914 129.758408 
L 96.732323 128.115483 
L 97.057139 138.589119 
L 97.381956 136.124746 
L 97.544365 129.347684 
L 97.706773 134.892545 
L 97.869182 128.93696 
L 98.193999 135.713993 
L 98.356407 135.508631 
L 98.518816 128.731598 
L 98.681224 130.169132 
L 98.843633 126.061834 
L 99.006041 127.704759 
L 99.16845 124.213547 
L 99.330858 124.829661 
L 99.980492 132.633534 
L 100.142901 130.785247 
L 100.305309 137.151556 
L 100.467717 135.919355 
L 100.630126 132.22281 
L 100.954943 138.589119 
L 101.117351 130.785247 
L 101.27976 135.508631 
L 101.442168 135.097907 
L 101.604577 136.330108 
L 101.766985 127.088673 
L 102.091802 121.133087 
L 102.254211 125.240386 
L 102.579028 122.776012 
L 102.741436 125.240386 
L 102.903845 122.981374 
L 103.066253 130.374523 
L 103.228662 130.374523 
L 103.39107 124.829661 
L 103.553479 124.213547 
L 103.715887 121.543812 
L 103.878296 124.624299 
L 104.040704 119.695525 
L 104.365521 126.267224 
L 104.527929 120.722363 
L 104.690338 127.294035 
L 104.852746 126.472586 
L 105.015155 123.802823 
L 105.177563 124.418937 
L 105.339972 126.677948 
L 105.50238 131.606695 
L 105.827197 117.025789 
L 106.152014 125.445748 
L 106.314423 120.106249 
L 106.476831 123.597461 
L 106.63924 129.96377 
L 106.801648 128.93696 
L 106.964057 130.579885 
L 107.126465 127.294035 
L 107.451282 113.329215 
L 107.61369 113.739939 
L 107.776099 109.427279 
L 107.938507 108.811193 
L 108.100916 114.150663 
L 108.263324 114.356026 
L 108.425733 114.356026 
L 108.588141 114.766778 
L 108.75055 118.257962 
L 108.912958 116.409703 
L 109.075367 129.142322 
L 109.400184 115.177502 
L 109.562592 119.2848 
L 109.725001 119.490162 
L 110.049818 114.97214 
L 110.212226 116.204313 
L 110.374635 120.927725 
L 110.537043 121.543812 
L 110.86186 128.115483 
L 111.024268 119.2848 
L 111.186677 120.106249 
L 111.349085 117.641875 
L 111.511494 121.543812 
L 111.836311 112.302376 
L 111.998719 112.713129 
L 112.161128 113.534577 
L 112.323536 110.248727 
L 112.485945 111.070204 
L 112.810762 117.025789 
L 113.297987 123.392099 
L 113.785213 131.606695 
L 113.947621 130.579885 
L 114.11003 117.231151 
L 114.272438 117.025789 
L 114.434847 110.043365 
L 114.597255 108.195078 
L 114.759663 114.150663 
L 114.922072 111.480928 
L 115.08448 114.356026 
L 115.246889 112.507767 
L 115.409297 112.302376 
L 115.571706 118.0526 
L 115.734114 119.490162 
L 115.896523 107.37363 
L 116.058931 110.043365 
L 116.22134 103.471694 
L 116.546157 113.123853 
L 116.870974 108.605831 
L 117.033382 111.891652 
L 117.195791 112.302376 
L 117.358199 114.356026 
L 117.520608 112.302376 
L 117.683016 117.436513 
L 117.845425 115.99895 
L 118.007833 116.204313 
L 118.170241 113.945301 
L 118.33265 107.784354 
L 118.495058 107.784354 
L 118.657467 106.141429 
L 118.819875 106.962906 
L 118.982284 113.329215 
L 119.144692 106.757543 
L 119.307101 109.838003 
L 119.469509 107.989716 
L 119.631918 113.534577 
L 119.794326 114.356026 
L 119.956735 112.097014 
L 120.281552 125.035024 
L 120.44396 113.123853 
L 120.606369 112.918491 
L 120.768777 116.615065 
L 120.931186 117.641875 
L 121.093594 126.472586 
L 121.256003 115.177502 
L 121.418411 115.177502 
L 121.58082 120.311611 
L 121.743228 120.517001 
L 122.068045 104.293142 
L 122.230453 107.37363 
L 122.392862 108.195078 
L 122.55527 108.40044 
L 122.717679 103.677056 
L 122.880087 106.962906 
L 123.042496 114.356026 
L 123.204904 111.891652 
L 123.367313 107.578992 
L 123.529721 107.784354 
L 123.69213 106.962906 
L 123.854538 104.909256 
L 124.016947 108.811193 
L 124.179355 104.08778 
L 124.341764 103.677056 
L 124.504172 104.293142 
L 124.666581 106.552181 
L 124.828989 106.757543 
L 125.153806 104.293142 
L 125.316214 110.043365 
L 125.478623 103.060969 
L 125.641031 107.37363 
L 125.80344 120.311611 
L 125.965848 120.311611 
L 126.128257 117.847238 
L 126.290665 107.37363 
L 126.453074 106.141429 
L 126.777891 99.569757 
L 126.940299 103.266331 
L 127.102708 102.034131 
L 127.265116 102.239493 
L 127.427525 105.936067 
L 127.589933 106.141429 
L 127.752342 113.123853 
L 127.91475 114.97214 
L 128.077159 114.766778 
L 128.239567 115.99895 
L 128.401976 114.97214 
L 128.726792 98.748309 
L 128.889201 94.435621 
L 129.214018 110.864842 
L 129.538835 107.37363 
L 129.701243 107.784354 
L 130.188469 121.133087 
L 130.350877 118.463352 
L 130.513286 120.927725 
L 130.838103 112.302376 
L 131.000511 110.454089 
L 131.16292 102.650245 
L 131.325328 108.811193 
L 131.487737 107.989716 
L 131.812554 96.283908 
L 131.974962 97.926832 
L 132.137371 98.132195 
L 132.299779 97.72147 
L 132.624596 103.471694 
L 132.787004 102.034131 
L 132.949413 108.195078 
L 133.111821 108.40044 
L 133.27423 111.275566 
L 133.436638 103.882418 
L 133.599047 103.060969 
L 133.761455 107.578992 
L 134.248681 99.364395 
L 134.411089 99.77512 
L 134.573498 101.623407 
L 134.735906 94.435621 
L 134.898315 96.078545 
L 135.060723 95.873183 
L 135.223132 97.105384 
L 135.38554 95.257097 
L 135.547949 99.364395 
L 135.710357 97.926832 
L 135.872765 93.819534 
L 136.035174 92.587333 
L 136.197582 95.667821 
L 136.359991 95.051735 
L 136.684808 113.534577 
L 136.847216 115.99895 
L 137.009625 116.615065 
L 137.172033 112.713129 
L 137.334442 112.713129 
L 137.49685 116.409703 
L 137.659259 112.097014 
L 137.821667 102.855607 
L 137.984076 101.212682 
L 138.146484 95.051735 
L 138.308893 98.542919 
L 138.471301 92.176609 
L 138.63371 98.337557 
L 138.796118 98.953671 
L 138.958527 102.239493 
L 139.120935 109.427279 
L 139.283343 109.016555 
L 139.445752 106.962906 
L 139.770569 101.828769 
L 139.932977 102.444855 
L 140.095386 98.542919 
L 140.257794 99.77512 
L 140.420203 98.542919 
L 140.582611 105.936067 
L 140.74502 104.08778 
L 140.907428 107.784354 
L 141.069837 108.195078 
L 141.232245 99.77512 
L 141.557062 107.989716 
L 141.719471 107.784354 
L 141.881879 106.962906 
L 142.206696 98.953671 
L 142.369105 109.427279 
L 142.693922 102.444855 
L 142.85633 97.516108 
L 143.018738 100.391206 
L 143.181147 94.230258 
L 143.343555 98.337557 
L 143.505964 97.926832 
L 143.668372 98.337557 
L 143.993189 102.444855 
L 144.155598 102.855607 
L 144.318006 109.632641 
L 144.480415 106.346791 
L 144.642823 110.043365 
L 144.805232 108.40044 
L 144.96764 105.525343 
L 145.130049 104.703894 
L 145.292457 117.025789 
L 145.454866 116.409703 
L 145.617274 103.266331 
L 145.779683 99.364395 
L 145.942091 100.391206 
L 146.1045 113.123853 
L 146.429316 112.302376 
L 146.754133 107.37363 
L 146.916542 108.195078 
L 147.566176 98.132195 
L 148.053401 94.435621 
L 148.21581 97.105384 
L 148.540627 96.078545 
L 148.865444 103.677056 
L 149.027852 102.855607 
L 149.190261 106.552181 
L 149.352669 114.356026 
L 149.515078 112.302376 
L 149.677486 106.962906 
L 149.839894 112.097014 
L 150.002303 109.016555 
L 150.164711 101.418044 
L 150.489528 105.936067 
L 150.651937 104.293142 
L 150.814345 106.141429 
L 150.976754 110.864842 
L 151.139162 120.106249 
L 151.301571 108.40044 
L 151.463979 105.936067 
L 151.626388 101.623407 
L 151.788796 104.293142 
L 151.951205 104.498504 
L 152.113613 111.480928 
L 152.276022 110.043365 
L 152.43843 104.498504 
L 152.600839 109.427279 
L 152.763247 105.114619 
L 152.925656 110.043365 
L 153.088064 108.605831 
L 153.412881 124.829661 
L 153.575289 124.624299 
L 153.900106 109.427279 
L 154.062515 118.874076 
L 154.387332 110.454089 
L 154.54974 108.605831 
L 154.712149 118.463352 
L 154.874557 119.079438 
L 155.036966 117.847238 
L 155.199374 113.329215 
L 155.361783 113.739939 
L 155.524191 114.97214 
L 155.6866 122.159898 
L 156.011417 113.534577 
L 156.173825 114.150663 
L 156.336234 111.891652 
L 156.498642 106.346791 
L 156.661051 105.936067 
L 156.823459 106.141429 
L 156.985867 110.864842 
L 157.148276 108.811193 
L 157.310684 101.828769 
L 157.473093 107.578992 
L 157.635501 102.239493 
L 157.79791 100.801958 
L 157.960318 100.391206 
L 158.122727 103.471694 
L 158.285135 104.293142 
L 158.934769 94.435621 
L 159.097178 96.078545 
L 159.259586 104.293142 
L 159.421995 103.060969 
L 159.584403 114.150663 
L 159.746812 109.427279 
L 159.90922 109.632641 
L 160.071629 103.060969 
L 160.234037 104.498504 
L 160.396445 110.454089 
L 160.558854 100.391206 
L 160.721262 103.471694 
L 161.046079 95.667821 
L 161.208488 96.078545 
L 161.370896 98.748309 
L 161.533305 92.176609 
L 162.02053 107.989716 
L 162.182939 100.391206 
L 162.345347 100.391206 
L 162.670164 93.819534 
L 162.994981 103.471694 
L 163.15739 105.319981 
L 163.319798 111.68629 
L 163.482207 111.891652 
L 163.644615 109.838003 
L 163.807024 104.08778 
L 164.13184 101.212682 
L 164.456657 94.846373 
L 164.619066 95.667821 
L 164.781474 95.667821 
L 164.943883 91.765885 
L 165.431108 95.257097 
L 165.593517 93.203448 
L 165.755925 93.40881 
L 165.918334 91.765885 
L 166.080742 93.40881 
L 166.243151 91.355161 
L 166.567968 96.48927 
L 166.730376 94.024896 
L 167.055193 105.114619 
L 167.217602 106.962906 
L 167.38001 111.68629 
L 167.867235 99.77512 
L 168.029644 96.078545 
L 168.192052 88.274673 
L 168.354461 92.587333 
L 168.516869 89.301512 
L 168.679278 90.533684 
L 168.841686 89.301512 
L 169.004095 90.12296 
L 169.166503 96.283908 
L 169.328912 91.765885 
L 169.49132 92.998086 
L 169.653729 91.560523 
L 169.816137 87.863949 
L 169.978546 91.971247 
L 170.140954 84.578099 
L 170.465771 87.658587 
L 170.62818 84.783461 
L 170.790588 89.712236 
L 170.952996 88.480035 
L 171.277813 97.310746 
L 171.440222 91.765885 
L 171.765039 114.150663 
L 172.089856 105.114619 
L 172.252264 97.516108 
L 172.414673 98.337557 
L 172.577081 90.12296 
L 172.73949 94.230258 
L 172.901898 87.658587 
L 173.064307 89.09615 
L 173.226715 88.890788 
L 173.389124 83.345926 
L 173.551532 90.12296 
L 173.713941 91.355161 
L 173.876349 88.274673 
L 174.038758 88.480035 
L 174.201166 90.533684 
L 174.363575 87.042501 
L 174.688391 93.203448 
L 174.8508 92.998086 
L 175.013208 94.230258 
L 175.175617 90.533684 
L 175.825251 111.070204 
L 176.150068 96.48927 
L 176.312476 98.132195 
L 176.474885 87.658587 
L 176.637293 91.355161 
L 176.96211 80.881525 
L 177.286927 83.756651 
L 177.449336 83.551289 
L 177.611744 82.113726 
L 177.774153 83.140564 
L 177.936561 78.827876 
L 178.261378 80.881525 
L 178.423786 78.417152 
L 178.911012 84.988851 
L 179.07342 82.52445 
L 179.235829 87.863949 
L 179.398237 89.506874 
L 179.560646 86.631748 
L 179.885463 99.364395 
L 180.372688 89.712236 
L 180.535097 91.355161 
L 180.697505 89.301512 
L 180.859914 85.8103 
L 181.022322 85.604938 
L 181.184731 84.783461 
L 181.347139 82.113726 
L 181.509548 86.837138 
L 181.671956 82.52445 
L 181.834364 87.658587 
L 182.159181 84.372737 
L 182.32159 81.086915 
L 182.483998 84.783461 
L 182.646407 82.935202 
L 182.808815 82.935202 
L 182.971224 87.247863 
L 183.133632 81.908364 
L 183.458449 92.792724 
L 183.620858 90.944437 
L 183.783266 85.8103 
L 184.108083 87.658587 
L 184.270492 87.863949 
L 184.4329 87.247863 
L 184.595309 92.998086 
L 184.757717 89.917598 
L 184.920126 92.587333 
L 185.082534 97.516108 
L 185.569759 86.426386 
L 185.732168 82.319088 
L 185.894576 82.319088 
L 186.056985 82.935202 
L 186.219393 80.881525 
L 186.381802 84.988851 
L 186.54421 86.221024 
L 186.869027 85.194214 
L 187.031436 80.470801 
L 187.356253 89.712236 
L 187.518661 80.060077 
L 187.68107 85.399576 
L 187.843478 84.167375 
L 188.005887 84.167375 
L 188.330704 93.614172 
L 188.493112 92.998086 
L 188.65552 96.69466 
L 188.817929 92.381971 
L 189.142746 80.265439 
L 189.467563 82.113726 
L 189.629971 77.595703 
L 189.79238 83.551289 
L 189.954788 81.292277 
L 190.117197 85.194214 
L 190.279605 79.854715 
L 190.442014 82.319088 
L 190.604422 88.069311 
L 190.766831 87.042501 
L 190.929239 86.837138 
L 191.091648 84.988851 
L 191.416465 98.542919 
L 191.741282 82.113726 
L 191.90369 76.774227 
L 192.066099 83.962013 
L 192.228507 84.578099 
L 192.553324 78.21179 
L 192.715732 81.703002 
L 192.878141 82.319088 
L 193.040549 75.747416 
L 193.202958 76.568865 
L 193.365366 79.854715 
L 193.527775 74.720578 
L 193.690183 77.390341 
L 193.852592 74.104491 
L 194.015 76.15814 
L 194.664634 89.301512 
L 194.827043 85.8103 
L 194.989451 86.631748 
L 195.15186 93.819534 
L 195.314268 93.40881 
L 196.12631 82.113726 
L 196.288719 83.140564 
L 196.451127 86.837138 
L 196.775944 89.506874 
L 197.100761 81.086915 
L 197.26317 81.497639 
L 197.425578 77.390341 
L 197.587987 81.908364 
L 197.750395 77.595703 
L 197.912804 77.801065 
L 198.075212 79.649352 
L 198.237621 83.140564 
L 198.400029 100.185844 
L 198.562438 102.650245 
L 198.724846 101.418044 
L 199.049663 82.935202 
L 199.212071 76.568865 
L 199.536888 74.515215 
L 199.699297 74.515215 
L 199.861705 74.309853 
L 200.024114 70.818641 
L 200.186522 74.515215 
L 200.348931 72.050842 
L 200.511339 73.693767 
L 200.673748 71.84548 
L 200.836156 75.13133 
L 200.998565 75.336692 
L 201.160973 74.309853 
L 201.323382 76.568865 
L 201.648199 92.176609 
L 201.810607 89.712236 
L 201.973016 99.364395 
L 202.135424 100.596568 
L 202.297833 90.739046 
L 202.460241 90.739046 
L 202.785058 81.703002 
L 202.947466 76.979589 
L 203.109875 76.774227 
L 203.272283 77.595703 
L 203.434692 69.997193 
L 203.5971 70.613279 
L 203.759509 73.077681 
L 203.921917 70.613279 
L 204.084326 72.256204 
L 204.246734 75.952778 
L 204.409143 74.720578 
L 204.571551 76.568865 
L 204.73396 74.92594 
L 204.896368 78.006427 
L 205.058777 76.15814 
L 205.221185 80.881525 
L 205.383594 78.21179 
L 205.546002 73.077681 
L 206.033228 78.622514 
L 206.195636 72.666928 
L 206.520453 78.417152 
L 206.682861 79.649352 
L 206.84527 82.319088 
L 207.007678 82.113726 
L 207.332495 83.756651 
L 207.494904 80.881525 
L 207.819721 93.614172 
L 207.982129 98.337557 
L 208.144538 91.355161 
L 208.306946 78.622514 
L 208.469355 75.13133 
L 208.631763 75.336692 
L 208.794172 74.309853 
L 208.95658 69.381107 
L 209.118989 71.84548 
L 209.281397 70.407917 
L 209.443806 70.202555 
L 209.768622 69.381107 
L 209.931031 71.434756 
L 210.093439 70.613279 
L 210.255848 72.872291 
L 210.418256 84.167375 
L 210.743073 90.328322 
L 211.392707 81.908364 
L 211.717524 74.720578 
L 211.879933 74.92594 
L 212.042341 72.872291 
L 212.20475 74.92594 
L 212.367158 66.095257 
L 212.529567 69.175745 
L 212.691975 68.148906 
L 212.854384 72.461566 
L 213.016792 70.202555 
L 213.179201 71.024004 
L 213.341609 72.872291 
L 213.666426 81.497639 
L 213.828834 77.801065 
L 213.991243 79.033266 
L 214.31606 98.542919 
L 214.478468 94.846373 
L 214.640877 95.257097 
L 214.803285 80.470801 
L 214.965694 76.15814 
L 215.128102 75.13133 
L 215.290511 71.434756 
L 215.452919 72.872291 
L 215.615328 68.55963 
L 215.777736 70.613279 
L 215.940145 69.381107 
L 216.102553 70.613279 
L 216.42737 66.711343 
L 216.589779 66.711343 
L 216.752187 69.791831 
L 216.914595 66.505981 
L 217.239412 77.595703 
L 217.889046 97.105384 
L 218.051455 93.40881 
L 218.376272 78.417152 
L 218.701089 69.791831 
L 218.863497 69.791831 
L 219.025906 72.666928 
L 219.188314 69.175745 
L 219.513131 71.640118 
L 219.67554 76.363503 
L 219.837948 77.184979 
L 220.325173 81.908364 
L 220.64999 74.515215 
L 220.812399 75.336692 
L 220.974807 78.006427 
L 221.299624 71.024004 
L 221.462033 73.899129 
L 221.624441 73.488405 
L 221.78685 71.434756 
L 221.949258 71.434756 
L 222.111667 72.872291 
L 222.274075 69.586469 
L 222.436484 68.55963 
L 222.761301 75.542054 
L 222.923709 73.488405 
L 223.086118 69.175745 
L 223.410935 86.015662 
L 223.573343 81.292277 
L 223.735752 82.113726 
L 223.89816 79.238628 
L 224.060568 83.551289 
L 224.222977 80.265439 
L 224.385385 82.935202 
L 224.547794 78.622514 
L 224.872611 85.194214 
L 225.197428 74.720578 
L 225.359836 82.729812 
L 225.522245 73.899129 
L 225.684653 75.747416 
L 226.00947 80.881525 
L 226.171879 84.167375 
L 226.334287 83.756651 
L 226.496696 76.15814 
L 226.659104 80.060077 
L 226.983921 66.505981 
L 227.308738 64.24697 
L 227.633555 69.175745 
L 227.795963 67.327458 
L 227.958372 64.041608 
L 228.12078 66.300619 
L 228.445597 65.479171 
L 228.770414 66.300619 
L 228.932823 75.336692 
L 229.095231 75.542054 
L 229.25764 88.274673 
L 229.744865 97.310746 
L 230.069682 70.818641 
L 230.232091 71.640118 
L 230.394499 74.720578 
L 230.556908 75.542054 
L 230.881724 65.889895 
L 231.044133 65.273808 
L 231.36895 71.434756 
L 231.531358 80.470801 
L 231.693767 76.363503 
L 231.856175 76.774227 
L 232.018584 71.84548 
L 232.180992 71.024004 
L 232.668218 63.630884 
L 232.993035 64.657694 
L 233.155443 63.220159 
L 233.317852 68.764992 
L 233.48026 68.354268 
L 233.642669 70.202555 
L 233.967486 78.622514 
L 234.129894 75.747416 
L 234.292303 79.44399 
L 234.454711 80.060077 
L 234.617119 81.703002 
L 234.779528 79.44399 
L 234.941936 80.881525 
L 235.104345 80.470801 
L 235.429162 71.640118 
L 235.59157 67.943544 
L 235.753979 67.943544 
L 236.078796 63.014769 
L 236.241204 63.425521 
L 236.72843 74.92594 
L 237.378064 94.846373 
L 237.865289 73.077681 
L 238.027697 72.256204 
L 238.190106 70.202555 
L 238.352514 75.952778 
L 238.514923 71.024004 
L 238.677331 71.434756 
L 238.83974 69.791831 
L 239.002148 72.256204 
L 239.164557 70.202555 
L 239.326965 64.863056 
L 239.651782 67.943544 
L 239.814191 63.220159 
L 239.976599 65.273808 
L 240.139008 65.273808 
L 240.301416 66.095257 
L 240.463825 65.684533 
L 240.626233 66.095257 
L 240.788642 70.613279 
L 240.95105 71.640118 
L 241.113459 67.327458 
L 241.275867 66.916705 
L 241.600684 68.148906 
L 241.763092 68.764992 
L 241.925501 66.505981 
L 242.087909 67.53282 
L 242.412726 76.363503 
L 242.575135 75.952778 
L 242.737543 76.15814 
L 242.899952 89.09615 
L 243.06236 91.971247 
L 243.224769 89.712236 
L 243.387177 96.283908 
L 244.361628 65.479171 
L 244.524037 64.452332 
L 244.848854 70.202555 
L 245.011262 68.148906 
L 245.17367 64.24697 
L 245.336079 63.836246 
L 245.498487 65.273808 
L 245.660896 64.24697 
L 245.985713 67.738182 
L 246.31053 63.425521 
L 246.472938 64.24697 
L 246.635347 61.782597 
L 246.797755 63.630884 
L 246.960164 60.96112 
L 247.122572 64.041608 
L 247.284981 63.630884 
L 247.934615 69.997193 
L 248.097023 77.595703 
L 248.259432 77.184979 
L 248.42184 90.944437 
L 248.584248 124.418937 
L 248.746657 116.409703 
L 248.909065 91.560523 
L 249.233882 74.720578 
L 249.396291 76.15814 
L 249.558699 71.024004 
L 249.721108 70.613279 
L 250.208333 63.836246 
L 250.370742 64.657694 
L 250.53315 64.452332 
L 250.695559 63.630884 
L 250.857967 63.630884 
L 251.020376 60.345034 
L 251.182784 63.425521 
L 251.345193 64.041608 
L 251.507601 65.684533 
L 251.67001 63.630884 
L 251.832418 63.836246 
L 251.994827 62.809407 
L 252.157235 69.381107 
L 252.482052 64.24697 
L 253.131686 80.676163 
L 253.294094 91.149799 
L 253.456503 81.908364 
L 253.618911 91.765885 
L 254.106137 77.390341 
L 254.268545 77.184979 
L 254.430954 71.434756 
L 254.593362 70.613279 
L 254.918179 62.604045 
L 255.080588 61.782597 
L 255.242996 57.675298 
L 255.89263 62.604045 
L 256.055038 61.166482 
L 256.379855 70.202555 
L 256.542264 71.640118 
L 256.867081 66.505981 
L 257.029489 66.916705 
L 257.354306 71.024004 
L 257.516715 64.657694 
L 257.841532 71.640118 
L 258.00394 83.551289 
L 258.166349 86.426386 
L 258.328757 80.881525 
L 258.491166 81.497639 
L 258.815983 68.764992 
L 258.978391 65.889895 
L 259.140799 66.916705 
L 259.303208 66.916705 
L 259.465616 65.479171 
L 259.790433 59.728947 
L 259.952842 63.220159 
L 260.11525 60.550396 
L 260.277659 62.193321 
L 260.440067 59.318223 
L 260.764884 62.809407 
L 260.927293 62.604045 
L 261.25211 69.381107 
L 261.576927 100.391206 
L 261.739335 99.364395 
L 262.226561 69.791831 
L 262.388969 67.327458 
L 262.551378 67.122067 
L 262.876194 66.300619 
L 263.038603 70.613279 
L 263.36342 73.693767 
L 263.688237 71.434756 
L 263.850645 72.872291 
L 264.013054 79.238628 
L 264.337871 73.899129 
L 264.500279 67.122067 
L 264.662688 65.684533 
L 264.825096 62.604045 
L 264.987505 63.630884 
L 265.149913 63.220159 
L 265.312322 61.782597 
L 265.47473 62.193321 
L 265.637139 63.630884 
L 265.799547 63.836246 
L 265.961956 62.398683 
L 266.124364 59.728947 
L 266.286772 65.889895 
L 266.611589 61.371872 
L 266.773998 63.014769 
L 266.936406 58.907471 
L 267.261223 72.872291 
L 267.423632 69.586469 
L 267.748449 82.935202 
L 267.910857 84.167375 
L 268.073266 73.693767 
L 268.235674 81.703002 
L 268.398083 82.52445 
L 268.560491 70.202555 
L 268.7229 69.381107 
L 269.047717 60.139672 
L 269.372534 65.684533 
L 269.534942 61.577234 
L 269.69735 61.987959 
L 269.859759 59.112833 
L 270.022167 59.728947 
L 270.184576 58.086022 
L 270.346984 65.684533 
L 270.509393 67.122067 
L 270.671801 71.434756 
L 270.83421 72.256204 
L 270.996618 70.613279 
L 271.159027 67.53282 
L 271.483844 77.390341 
L 271.646252 72.050842 
L 271.808661 78.417152 
L 271.971069 75.336692 
L 272.295886 67.738182 
L 272.620703 69.791831 
L 272.783112 68.970354 
L 272.94552 72.461566 
L 273.107929 72.050842 
L 273.270337 79.649352 
L 273.595154 73.283043 
L 273.757562 75.336692 
L 273.919971 75.336692 
L 274.082379 78.21179 
L 274.244788 76.363503 
L 274.407196 67.122067 
L 274.569605 64.657694 
L 274.732013 67.53282 
L 274.894422 63.836246 
L 275.05683 65.684533 
L 275.219239 62.193321 
L 275.381647 62.193321 
L 275.544056 61.371872 
L 275.706464 61.987959 
L 275.868873 60.755758 
L 276.031281 62.398683 
L 276.19369 59.523585 
L 276.356098 60.345034 
L 276.518507 59.318223 
L 276.680915 63.425521 
L 276.843323 59.523585 
L 277.005732 58.907471 
L 277.16814 60.139672 
L 277.330549 63.220159 
L 277.492957 60.550396 
L 277.980183 89.917598 
L 278.142591 91.560523 
L 278.305 80.060077 
L 278.467408 78.21179 
L 278.629817 71.640118 
L 278.792225 75.542054 
L 278.954634 68.970354 
L 279.279451 66.916705 
L 279.441859 68.970354 
L 279.604268 69.175745 
L 279.766676 72.050842 
L 279.929085 71.229394 
L 280.41631 62.604045 
L 280.578718 65.273808 
L 280.741127 63.425521 
L 281.228352 80.881525 
L 281.390761 80.265439 
L 281.553169 82.729812 
L 281.715578 77.801065 
L 281.877986 76.363503 
L 282.040395 80.265439 
L 282.202803 80.265439 
L 282.365212 77.801065 
L 282.690029 63.425521 
L 282.852437 62.604045 
L 283.014846 59.728947 
L 283.177254 62.193321 
L 283.339663 66.505981 
L 283.502071 64.863056 
L 283.66448 67.53282 
L 283.826888 67.943544 
L 283.989296 72.256204 
L 284.151705 71.434756 
L 284.476522 63.220159 
L 284.63893 60.139672 
L 284.801339 60.755758 
L 284.963747 59.934309 
L 285.126156 61.371872 
L 285.288564 58.086022 
L 285.450973 62.809407 
L 285.613381 63.220159 
L 285.77579 62.398683 
L 286.100607 68.764992 
L 286.263015 69.175745 
L 286.587832 92.587333 
L 286.750241 87.658587 
L 286.912649 102.239493 
L 287.237466 72.256204 
L 287.724691 60.755758 
L 287.8871 61.166482 
L 288.049508 62.809407 
L 288.536734 59.318223 
L 288.699142 59.523585 
L 288.861551 57.264546 
L 289.023959 60.96112 
L 289.186368 71.229394 
L 289.348776 72.050842 
L 289.511185 80.265439 
L 289.673593 81.086915 
L 290.323227 64.657694 
L 290.485636 67.943544 
L 291.135269 56.237735 
L 291.460086 58.907471 
L 291.622495 56.853822 
L 291.784903 60.755758 
L 291.947312 60.139672 
L 292.10972 60.139672 
L 292.272129 57.88066 
L 292.434537 59.523585 
L 292.759354 67.738182 
L 292.921763 78.622514 
L 293.084171 75.952778 
L 293.408988 79.649352 
L 293.571397 78.827876 
L 294.383439 59.318223 
L 294.545847 59.112833 
L 294.708256 59.112833 
L 294.870664 59.728947 
L 295.033073 61.166482 
L 295.195481 64.863056 
L 295.520298 59.728947 
L 295.845115 83.962013 
L 296.169932 79.033266 
L 296.332341 68.55963 
L 296.494749 70.613279 
L 296.657158 76.15814 
L 296.819566 68.354268 
L 296.981975 70.407917 
L 297.144383 74.92594 
L 297.631609 65.273808 
L 297.794017 65.273808 
L 298.118834 59.523585 
L 298.281242 59.728947 
L 298.443651 61.166482 
L 298.768468 61.577234 
L 299.093285 57.675298 
L 299.255693 61.577234 
L 299.418102 58.702109 
L 299.58051 60.139672 
L 299.742919 63.630884 
L 299.905327 63.836246 
L 300.067736 62.604045 
L 300.230144 63.630884 
L 300.554961 76.979589 
L 300.71737 91.971247 
L 300.879778 85.194214 
L 301.042187 92.792724 
L 301.367004 74.92594 
L 301.529412 75.13133 
L 301.69182 66.916705 
L 301.854229 64.657694 
L 302.016637 68.55963 
L 302.341454 61.166482 
L 302.503863 63.836246 
L 302.991088 57.675298 
L 303.153497 58.702109 
L 303.315905 58.907471 
L 303.640722 55.416287 
L 303.803131 57.675298 
L 303.965539 55.416287 
L 304.127948 57.059184 
L 304.452765 53.978724 
L 304.615173 55.621649 
L 304.777582 58.702109 
L 304.93999 64.452332 
L 305.264807 94.435621 
L 305.427215 90.533684 
L 305.589624 93.819534 
L 305.752032 72.461566 
L 305.914441 75.542054 
L 306.076849 75.336692 
L 306.239258 76.568865 
L 306.564075 74.309853 
L 306.888892 63.425521 
L 307.0513 60.139672 
L 307.213709 60.345034 
L 307.376117 58.086022 
L 307.538526 59.318223 
L 307.863343 57.675298 
L 308.025751 55.416287 
L 308.18816 54.800173 
L 308.350568 55.005535 
L 308.512976 55.827011 
L 308.675385 55.005535 
L 309.16261 67.738182 
L 309.325019 65.889895 
L 309.487427 72.872291 
L 309.649836 70.407917 
L 309.812244 70.613279 
L 310.29947 58.291385 
L 310.624287 56.853822 
L 310.786695 58.086022 
L 310.949104 63.014769 
L 311.111512 61.782597 
L 311.273921 58.086022 
L 311.598738 78.417152 
L 311.761146 81.086915 
L 311.923555 81.086915 
L 312.41078 70.818641 
L 312.573188 71.434756 
L 312.735597 69.791831 
L 313.060414 63.630884 
L 313.222822 62.398683 
L 313.385231 66.505981 
L 313.547639 65.684533 
L 313.872456 56.64846 
L 314.197273 55.416287 
L 314.359682 55.416287 
L 314.52209 56.032373 
L 314.684499 54.59481 
L 314.846907 56.032373 
L 315.009316 55.416287 
L 315.334133 67.327458 
L 315.496541 65.479171 
L 315.821358 77.801065 
L 315.983766 75.13133 
L 316.146175 79.44399 
L 316.308583 90.328322 
L 316.795809 64.452332 
L 316.958217 62.398683 
L 317.120626 58.496747 
L 317.283034 60.139672 
L 317.607851 56.032373 
L 317.77026 56.237735 
L 318.095077 59.934309 
L 318.419894 56.237735 
L 318.582302 65.273808 
L 318.744711 62.604045 
L 318.907119 62.604045 
L 319.069527 65.889895 
L 319.231936 77.390341 
L 319.394344 70.818641 
L 319.556753 81.497639 
L 319.719161 83.345926 
L 320.206387 73.077681 
L 320.368795 71.84548 
L 320.531204 71.84548 
L 320.693612 64.452332 
L 320.856021 65.273808 
L 321.018429 66.916705 
L 321.180838 61.371872 
L 321.343246 60.550396 
L 321.505655 55.416287 
L 321.99288 58.907471 
L 322.155289 64.041608 
L 322.317697 65.479171 
L 322.480106 62.193321 
L 322.804922 71.640118 
L 322.967331 66.505981 
L 323.129739 65.479171 
L 323.292148 60.345034 
L 323.454556 59.523585 
L 323.616965 59.523585 
L 323.779373 59.318223 
L 323.941782 57.88066 
L 324.10419 62.193321 
L 324.266599 61.987959 
L 324.591416 68.55963 
L 324.753824 82.113726 
L 324.916233 84.372737 
L 325.403458 69.791831 
L 325.565867 69.175745 
L 325.728275 67.327458 
L 325.890684 62.193321 
L 326.053092 62.398683 
L 326.2155 61.577234 
L 326.377909 58.291385 
L 326.540317 60.139672 
L 326.702726 67.943544 
L 326.865134 66.916705 
L 327.027543 63.014769 
L 327.189951 62.809407 
L 327.35236 60.345034 
L 327.514768 59.934309 
L 327.677177 60.345034 
L 327.839585 59.318223 
L 328.489219 81.497639 
L 328.651628 82.113726 
L 328.814036 84.167375 
L 328.976445 74.515215 
L 329.138853 74.309853 
L 329.301262 75.336692 
L 329.46367 72.872291 
L 329.626078 73.899129 
L 329.950895 64.24697 
L 330.275712 58.496747 
L 330.438121 56.853822 
L 330.600529 59.728947 
L 330.762938 57.88066 
L 330.925346 61.987959 
L 331.087755 59.318223 
L 331.250163 53.568 
L 331.412572 55.416287 
L 331.57498 53.773362 
L 331.899797 55.210897 
L 332.062206 58.907471 
L 332.224614 66.711343 
L 332.387023 65.889895 
L 332.549431 64.041608 
L 332.71184 64.24697 
L 333.036657 71.640118 
L 333.199065 69.381107 
L 333.523882 73.077681 
L 333.848699 62.809407 
L 334.011107 65.684533 
L 334.173516 59.934309 
L 334.335924 60.96112 
L 334.498333 56.237735 
L 334.660741 57.059184 
L 334.82315 58.496747 
L 334.985558 58.086022 
L 335.147967 61.166482 
L 335.472784 75.542054 
L 335.635192 68.764992 
L 335.960009 78.827876 
L 336.609643 58.291385 
L 336.772051 60.550396 
L 336.93446 59.523585 
L 337.096868 67.943544 
L 337.421685 57.469936 
L 337.584094 57.059184 
L 337.746502 56.237735 
L 337.908911 58.086022 
L 338.071319 58.496747 
L 338.233728 57.469936 
L 338.396136 58.702109 
L 338.558545 66.916705 
L 338.720953 81.908364 
L 338.883362 86.015662 
L 339.04577 85.604938 
L 339.532996 73.283043 
L 339.695404 63.630884 
L 340.020221 57.88066 
L 340.345038 59.934309 
L 340.669855 56.64846 
L 340.832263 58.291385 
L 340.994672 56.237735 
L 341.15708 60.345034 
L 341.319489 55.416287 
L 341.481897 62.809407 
L 341.644306 56.853822 
L 341.806714 59.728947 
L 341.969123 58.086022 
L 342.131531 61.166482 
L 342.29394 61.577234 
L 342.618757 68.148906 
L 342.781165 69.997193 
L 342.943574 69.791831 
L 343.430799 76.363503 
L 343.918024 61.782597 
L 344.080433 60.139672 
L 344.242841 59.934309 
L 344.40525 67.122067 
L 344.567658 65.889895 
L 344.730067 66.505981 
L 344.892475 63.220159 
L 345.054884 65.273808 
L 345.217292 59.112833 
L 345.379701 59.318223 
L 345.542109 59.112833 
L 345.704518 59.112833 
L 346.191743 81.086915 
L 346.354152 82.52445 
L 346.841377 69.997193 
L 347.003786 72.050842 
L 347.328602 58.702109 
L 347.491011 58.291385 
L 347.653419 54.800173 
L 347.815828 57.675298 
L 347.978236 64.863056 
L 348.140645 62.193321 
L 348.303053 61.371872 
L 348.465462 61.782597 
L 348.790279 55.005535 
L 348.952687 55.005535 
L 349.115096 55.416287 
L 349.277504 54.389448 
L 349.439913 54.59481 
L 349.602321 60.345034 
L 349.76473 59.318223 
L 349.927138 56.853822 
L 350.089547 59.318223 
L 350.251955 56.64846 
L 350.414364 56.443098 
L 350.576772 55.827011 
L 350.73918 57.88066 
L 351.063997 74.309853 
L 351.226406 73.693767 
L 351.388814 70.818641 
L 351.713631 61.782597 
L 351.87604 59.112833 
L 352.038448 60.139672 
L 352.200857 59.523585 
L 352.363265 57.675298 
L 352.850491 64.657694 
L 353.012899 63.836246 
L 353.175308 68.764992 
L 353.337716 61.371872 
L 353.662533 58.291385 
L 353.824942 60.345034 
L 353.98735 58.086022 
L 354.149759 59.728947 
L 354.312167 56.853822 
L 354.636984 58.086022 
L 354.799392 58.086022 
L 354.961801 56.443098 
L 355.124209 56.853822 
L 355.286618 56.853822 
L 355.449026 59.728947 
L 355.611435 68.354268 
L 355.936252 97.926832 
L 356.423477 69.381107 
L 356.585886 70.818641 
L 356.910703 66.300619 
L 357.073111 60.139672 
L 357.23552 63.425521 
L 357.397928 60.755758 
L 357.560337 62.398683 
L 357.722745 61.166482 
L 357.885153 68.55963 
L 358.047562 64.041608 
L 358.20997 64.452332 
L 358.372379 57.88066 
L 358.534787 57.469936 
L 358.859604 55.416287 
L 359.022013 57.675298 
L 359.34683 68.354268 
L 359.509238 63.425521 
L 359.671647 70.613279 
L 359.834055 67.943544 
L 359.996464 62.809407 
L 360.158872 61.577234 
L 360.321281 68.764992 
L 360.483689 66.916705 
L 360.646098 67.122067 
L 360.808506 68.354268 
L 361.133323 62.193321 
L 361.295732 63.425521 
L 361.620548 57.264546 
L 361.782957 56.853822 
L 361.945365 57.264546 
L 362.270182 62.809407 
L 362.432591 62.604045 
L 362.594999 62.604045 
L 362.919816 57.675298 
L 363.082225 61.371872 
L 363.407042 85.604938 
L 363.731859 70.202555 
L 363.894267 62.398683 
L 364.056676 65.889895 
L 364.219084 63.836246 
L 364.381493 64.863056 
L 364.543901 68.148906 
L 364.868718 65.273808 
L 365.031126 66.300619 
L 365.193535 60.755758 
L 365.355943 61.987959 
L 365.518352 56.853822 
L 365.68076 56.032373 
L 365.843169 56.237735 
L 366.167986 55.621649 
L 366.330394 57.264546 
L 366.655211 55.827011 
L 366.81762 58.907471 
L 366.980028 56.032373 
L 367.142437 58.086022 
L 367.304845 56.853822 
L 367.467254 56.853822 
L 367.792071 59.112833 
L 367.954479 58.907471 
L 368.116888 59.728947 
L 368.766521 90.12296 
L 369.253747 79.033266 
L 369.416155 71.229394 
L 369.578564 69.175745 
L 369.903381 61.577234 
L 370.390606 56.64846 
L 370.553015 56.443098 
L 370.715423 56.64846 
L 370.877832 56.443098 
L 371.04024 55.621649 
L 371.202649 55.416287 
L 371.365057 56.032373 
L 371.527466 54.389448 
L 371.689874 54.800173 
L 371.852283 57.88066 
L 372.014691 58.496747 
L 372.339508 65.889895 
L 372.664325 87.863949 
L 372.826733 121.749174 
L 373.313959 83.962013 
L 373.963593 58.496747 
L 374.126001 57.675298 
L 374.28841 56.032373 
L 374.450818 55.621649 
L 374.938044 59.728947 
L 375.100452 61.577234 
L 375.262861 57.675298 
L 375.425269 57.264546 
L 375.587677 59.934309 
L 375.750086 58.086022 
L 375.912494 58.702109 
L 376.237311 77.595703 
L 376.39972 74.720578 
L 376.886945 59.728947 
L 377.049354 58.496747 
L 377.211762 56.237735 
L 377.374171 58.496747 
L 377.536579 57.264546 
L 377.698988 57.469936 
L 377.861396 55.621649 
L 378.186213 58.086022 
L 378.348622 58.907471 
L 378.673439 80.881525 
L 378.835847 80.881525 
L 378.998255 73.899129 
L 379.160664 74.515215 
L 379.485481 66.095257 
L 379.647889 67.943544 
L 379.810298 61.987959 
L 379.972706 62.604045 
L 380.135115 62.398683 
L 380.297523 62.604045 
L 380.62234 55.005535 
L 380.784749 55.827011 
L 380.947157 54.184086 
L 381.109566 55.621649 
L 381.271974 53.773362 
L 381.434383 53.978724 
L 381.596791 57.88066 
L 381.7592 54.184086 
L 382.084017 58.086022 
L 382.408834 56.032373 
L 382.571242 58.496747 
L 383.058467 77.595703 
L 383.220876 76.15814 
L 383.383284 65.684533 
L 383.545693 69.791831 
L 383.708101 69.175745 
L 384.032918 65.273808 
L 384.195327 59.934309 
L 384.357735 59.318223 
L 384.520144 62.398683 
L 384.682552 62.809407 
L 385.007369 57.264546 
L 385.332186 66.300619 
L 385.494595 69.791831 
L 385.657003 67.738182 
L 385.819412 68.764992 
L 385.98182 61.371872 
L 386.144228 59.934309 
L 386.306637 56.443098 
L 386.469045 55.416287 
L 386.631454 56.032373 
L 386.793862 59.934309 
L 386.956271 57.88066 
L 387.281088 60.96112 
L 387.443496 60.96112 
L 387.605905 58.907471 
L 387.768313 58.496747 
L 387.930722 58.496747 
L 388.09313 58.291385 
L 388.255539 55.827011 
L 388.742764 65.889895 
L 389.067581 58.702109 
L 389.22999 56.032373 
L 389.392398 55.210897 
L 389.717215 61.782597 
L 389.879623 57.264546 
L 390.042032 58.291385 
L 390.20444 58.086022 
L 390.366849 55.621649 
L 390.529257 57.469936 
L 390.691666 61.782597 
L 390.854074 62.398683 
L 391.178891 71.024004 
L 391.3413 70.818641 
L 391.828525 86.426386 
L 391.990934 94.435621 
L 392.315751 71.640118 
L 392.478159 71.434756 
L 392.640568 63.836246 
L 392.965385 60.345034 
L 393.127793 55.621649 
L 393.290201 56.237735 
L 393.615018 60.550396 
L 393.777427 60.96112 
L 394.264652 54.800173 
L 394.589469 56.237735 
L 394.751878 55.827011 
L 394.914286 56.032373 
L 395.076695 56.032373 
L 395.239103 55.005535 
L 395.401512 58.086022 
L 395.56392 58.702109 
L 395.726329 60.139672 
L 396.051146 58.086022 
L 396.213554 63.836246 
L 396.375963 60.96112 
L 396.538371 60.345034 
L 396.863188 61.987959 
L 397.188005 80.881525 
L 397.512822 76.363503 
L 397.67523 74.92594 
L 398.000047 64.452332 
L 398.162456 59.728947 
L 398.324864 59.934309 
L 398.487273 56.853822 
L 398.487273 56.853822 
" style="fill:none;stroke:#ffa500;stroke-linecap:square;stroke-width:1.5;"/>
   </g>
   <g id="patch_3">
    <path d="M 57.6 307.584 
L 57.6 41.472 
" style="fill:none;stroke:#000000;stroke-linecap:square;stroke-linejoin:miter;stroke-width:0.8;"/>
   </g>
   <g id="patch_4">
    <path d="M 414.72 307.584 
L 414.72 41.472 
" style="fill:none;stroke:#000000;stroke-linecap:square;stroke-linejoin:miter;stroke-width:0.8;"/>
   </g>
   <g id="patch_5">
    <path d="M 57.6 307.584 
L 414.72 307.584 
" style="fill:none;stroke:#000000;stroke-linecap:square;stroke-linejoin:miter;stroke-width:0.8;"/>
   </g>
   <g id="patch_6">
    <path d="M 57.6 41.472 
L 414.72 41.472 
" style="fill:none;stroke:#000000;stroke-linecap:square;stroke-linejoin:miter;stroke-width:0.8;"/>
   </g>
   <g id="text_15">
    <!-- Training Accuracy evolving with epochs -->
    <g transform="translate(117.929063 35.472)scale(0.12 -0.12)">
     <defs>
      <path d="M -19 4666 
L 3928 4666 
L 3928 4134 
L 2272 4134 
L 2272 0 
L 1638 0 
L 1638 4134 
L -19 4134 
L -19 4666 
z
" id="DejaVuSans-54" transform="scale(0.015625)"/>
      <path d="M 2631 2963 
Q 2534 3019 2420 3045 
Q 2306 3072 2169 3072 
Q 1681 3072 1420 2755 
Q 1159 2438 1159 1844 
L 1159 0 
L 581 0 
L 581 3500 
L 1159 3500 
L 1159 2956 
Q 1341 3275 1631 3429 
Q 1922 3584 2338 3584 
Q 2397 3584 2469 3576 
Q 2541 3569 2628 3553 
L 2631 2963 
z
" id="DejaVuSans-72" transform="scale(0.015625)"/>
      <path d="M 2194 1759 
Q 1497 1759 1228 1600 
Q 959 1441 959 1056 
Q 959 750 1161 570 
Q 1363 391 1709 391 
Q 2188 391 2477 730 
Q 2766 1069 2766 1631 
L 2766 1759 
L 2194 1759 
z
M 3341 1997 
L 3341 0 
L 2766 0 
L 2766 531 
Q 2569 213 2275 61 
Q 1981 -91 1556 -91 
Q 1019 -91 701 211 
Q 384 513 384 1019 
Q 384 1609 779 1909 
Q 1175 2209 1959 2209 
L 2766 2209 
L 2766 2266 
Q 2766 2663 2505 2880 
Q 2244 3097 1772 3097 
Q 1472 3097 1187 3025 
Q 903 2953 641 2809 
L 641 3341 
Q 956 3463 1253 3523 
Q 1550 3584 1831 3584 
Q 2591 3584 2966 3190 
Q 3341 2797 3341 1997 
z
" id="DejaVuSans-61" transform="scale(0.015625)"/>
      <path d="M 603 3500 
L 1178 3500 
L 1178 0 
L 603 0 
L 603 3500 
z
M 603 4863 
L 1178 4863 
L 1178 4134 
L 603 4134 
L 603 4863 
z
" id="DejaVuSans-69" transform="scale(0.015625)"/>
      <path d="M 3513 2113 
L 3513 0 
L 2938 0 
L 2938 2094 
Q 2938 2591 2744 2837 
Q 2550 3084 2163 3084 
Q 1697 3084 1428 2787 
Q 1159 2491 1159 1978 
L 1159 0 
L 581 0 
L 581 3500 
L 1159 3500 
L 1159 2956 
Q 1366 3272 1645 3428 
Q 1925 3584 2291 3584 
Q 2894 3584 3203 3211 
Q 3513 2838 3513 2113 
z
" id="DejaVuSans-6e" transform="scale(0.015625)"/>
      <path d="M 2906 1791 
Q 2906 2416 2648 2759 
Q 2391 3103 1925 3103 
Q 1463 3103 1205 2759 
Q 947 2416 947 1791 
Q 947 1169 1205 825 
Q 1463 481 1925 481 
Q 2391 481 2648 825 
Q 2906 1169 2906 1791 
z
M 3481 434 
Q 3481 -459 3084 -895 
Q 2688 -1331 1869 -1331 
Q 1566 -1331 1297 -1286 
Q 1028 -1241 775 -1147 
L 775 -588 
Q 1028 -725 1275 -790 
Q 1522 -856 1778 -856 
Q 2344 -856 2625 -561 
Q 2906 -266 2906 331 
L 2906 616 
Q 2728 306 2450 153 
Q 2172 0 1784 0 
Q 1141 0 747 490 
Q 353 981 353 1791 
Q 353 2603 747 3093 
Q 1141 3584 1784 3584 
Q 2172 3584 2450 3431 
Q 2728 3278 2906 2969 
L 2906 3500 
L 3481 3500 
L 3481 434 
z
" id="DejaVuSans-67" transform="scale(0.015625)"/>
      <path id="DejaVuSans-20" transform="scale(0.015625)"/>
      <path d="M 2188 4044 
L 1331 1722 
L 3047 1722 
L 2188 4044 
z
M 1831 4666 
L 2547 4666 
L 4325 0 
L 3669 0 
L 3244 1197 
L 1141 1197 
L 716 0 
L 50 0 
L 1831 4666 
z
" id="DejaVuSans-41" transform="scale(0.015625)"/>
      <path d="M 3122 3366 
L 3122 2828 
Q 2878 2963 2633 3030 
Q 2388 3097 2138 3097 
Q 1578 3097 1268 2742 
Q 959 2388 959 1747 
Q 959 1106 1268 751 
Q 1578 397 2138 397 
Q 2388 397 2633 464 
Q 2878 531 3122 666 
L 3122 134 
Q 2881 22 2623 -34 
Q 2366 -91 2075 -91 
Q 1284 -91 818 406 
Q 353 903 353 1747 
Q 353 2603 823 3093 
Q 1294 3584 2113 3584 
Q 2378 3584 2631 3529 
Q 2884 3475 3122 3366 
z
" id="DejaVuSans-63" transform="scale(0.015625)"/>
      <path d="M 544 1381 
L 544 3500 
L 1119 3500 
L 1119 1403 
Q 1119 906 1312 657 
Q 1506 409 1894 409 
Q 2359 409 2629 706 
Q 2900 1003 2900 1516 
L 2900 3500 
L 3475 3500 
L 3475 0 
L 2900 0 
L 2900 538 
Q 2691 219 2414 64 
Q 2138 -91 1772 -91 
Q 1169 -91 856 284 
Q 544 659 544 1381 
z
M 1991 3584 
L 1991 3584 
z
" id="DejaVuSans-75" transform="scale(0.015625)"/>
      <path d="M 2059 -325 
Q 1816 -950 1584 -1140 
Q 1353 -1331 966 -1331 
L 506 -1331 
L 506 -850 
L 844 -850 
Q 1081 -850 1212 -737 
Q 1344 -625 1503 -206 
L 1606 56 
L 191 3500 
L 800 3500 
L 1894 763 
L 2988 3500 
L 3597 3500 
L 2059 -325 
z
" id="DejaVuSans-79" transform="scale(0.015625)"/>
      <path d="M 3597 1894 
L 3597 1613 
L 953 1613 
Q 991 1019 1311 708 
Q 1631 397 2203 397 
Q 2534 397 2845 478 
Q 3156 559 3463 722 
L 3463 178 
Q 3153 47 2828 -22 
Q 2503 -91 2169 -91 
Q 1331 -91 842 396 
Q 353 884 353 1716 
Q 353 2575 817 3079 
Q 1281 3584 2069 3584 
Q 2775 3584 3186 3129 
Q 3597 2675 3597 1894 
z
M 3022 2063 
Q 3016 2534 2758 2815 
Q 2500 3097 2075 3097 
Q 1594 3097 1305 2825 
Q 1016 2553 972 2059 
L 3022 2063 
z
" id="DejaVuSans-65" transform="scale(0.015625)"/>
      <path d="M 191 3500 
L 800 3500 
L 1894 563 
L 2988 3500 
L 3597 3500 
L 2284 0 
L 1503 0 
L 191 3500 
z
" id="DejaVuSans-76" transform="scale(0.015625)"/>
      <path d="M 1959 3097 
Q 1497 3097 1228 2736 
Q 959 2375 959 1747 
Q 959 1119 1226 758 
Q 1494 397 1959 397 
Q 2419 397 2687 759 
Q 2956 1122 2956 1747 
Q 2956 2369 2687 2733 
Q 2419 3097 1959 3097 
z
M 1959 3584 
Q 2709 3584 3137 3096 
Q 3566 2609 3566 1747 
Q 3566 888 3137 398 
Q 2709 -91 1959 -91 
Q 1206 -91 779 398 
Q 353 888 353 1747 
Q 353 2609 779 3096 
Q 1206 3584 1959 3584 
z
" id="DejaVuSans-6f" transform="scale(0.015625)"/>
      <path d="M 603 4863 
L 1178 4863 
L 1178 0 
L 603 0 
L 603 4863 
z
" id="DejaVuSans-6c" transform="scale(0.015625)"/>
      <path d="M 269 3500 
L 844 3500 
L 1563 769 
L 2278 3500 
L 2956 3500 
L 3675 769 
L 4391 3500 
L 4966 3500 
L 4050 0 
L 3372 0 
L 2619 2869 
L 1863 0 
L 1184 0 
L 269 3500 
z
" id="DejaVuSans-77" transform="scale(0.015625)"/>
      <path d="M 1172 4494 
L 1172 3500 
L 2356 3500 
L 2356 3053 
L 1172 3053 
L 1172 1153 
Q 1172 725 1289 603 
Q 1406 481 1766 481 
L 2356 481 
L 2356 0 
L 1766 0 
Q 1100 0 847 248 
Q 594 497 594 1153 
L 594 3053 
L 172 3053 
L 172 3500 
L 594 3500 
L 594 4494 
L 1172 4494 
z
" id="DejaVuSans-74" transform="scale(0.015625)"/>
      <path d="M 3513 2113 
L 3513 0 
L 2938 0 
L 2938 2094 
Q 2938 2591 2744 2837 
Q 2550 3084 2163 3084 
Q 1697 3084 1428 2787 
Q 1159 2491 1159 1978 
L 1159 0 
L 581 0 
L 581 4863 
L 1159 4863 
L 1159 2956 
Q 1366 3272 1645 3428 
Q 1925 3584 2291 3584 
Q 2894 3584 3203 3211 
Q 3513 2838 3513 2113 
z
" id="DejaVuSans-68" transform="scale(0.015625)"/>
      <path d="M 1159 525 
L 1159 -1331 
L 581 -1331 
L 581 3500 
L 1159 3500 
L 1159 2969 
Q 1341 3281 1617 3432 
Q 1894 3584 2278 3584 
Q 2916 3584 3314 3078 
Q 3713 2572 3713 1747 
Q 3713 922 3314 415 
Q 2916 -91 2278 -91 
Q 1894 -91 1617 61 
Q 1341 213 1159 525 
z
M 3116 1747 
Q 3116 2381 2855 2742 
Q 2594 3103 2138 3103 
Q 1681 3103 1420 2742 
Q 1159 2381 1159 1747 
Q 1159 1113 1420 752 
Q 1681 391 2138 391 
Q 2594 391 2855 752 
Q 3116 1113 3116 1747 
z
" id="DejaVuSans-70" transform="scale(0.015625)"/>
      <path d="M 2834 3397 
L 2834 2853 
Q 2591 2978 2328 3040 
Q 2066 3103 1784 3103 
Q 1356 3103 1142 2972 
Q 928 2841 928 2578 
Q 928 2378 1081 2264 
Q 1234 2150 1697 2047 
L 1894 2003 
Q 2506 1872 2764 1633 
Q 3022 1394 3022 966 
Q 3022 478 2636 193 
Q 2250 -91 1575 -91 
Q 1294 -91 989 -36 
Q 684 19 347 128 
L 347 722 
Q 666 556 975 473 
Q 1284 391 1588 391 
Q 1994 391 2212 530 
Q 2431 669 2431 922 
Q 2431 1156 2273 1281 
Q 2116 1406 1581 1522 
L 1381 1569 
Q 847 1681 609 1914 
Q 372 2147 372 2553 
Q 372 3047 722 3315 
Q 1072 3584 1716 3584 
Q 2034 3584 2315 3537 
Q 2597 3491 2834 3397 
z
" id="DejaVuSans-73" transform="scale(0.015625)"/>
     </defs>
     <use xlink:href="#DejaVuSans-54"/>
     <use x="46.333984" xlink:href="#DejaVuSans-72"/>
     <use x="87.447266" xlink:href="#DejaVuSans-61"/>
     <use x="148.726562" xlink:href="#DejaVuSans-69"/>
     <use x="176.509766" xlink:href="#DejaVuSans-6e"/>
     <use x="239.888672" xlink:href="#DejaVuSans-69"/>
     <use x="267.671875" xlink:href="#DejaVuSans-6e"/>
     <use x="331.050781" xlink:href="#DejaVuSans-67"/>
     <use x="394.527344" xlink:href="#DejaVuSans-20"/>
     <use x="426.314453" xlink:href="#DejaVuSans-41"/>
     <use x="492.972656" xlink:href="#DejaVuSans-63"/>
     <use x="547.953125" xlink:href="#DejaVuSans-63"/>
     <use x="602.933594" xlink:href="#DejaVuSans-75"/>
     <use x="666.3125" xlink:href="#DejaVuSans-72"/>
     <use x="707.425781" xlink:href="#DejaVuSans-61"/>
     <use x="768.705078" xlink:href="#DejaVuSans-63"/>
     <use x="823.685547" xlink:href="#DejaVuSans-79"/>
     <use x="882.865234" xlink:href="#DejaVuSans-20"/>
     <use x="914.652344" xlink:href="#DejaVuSans-65"/>
     <use x="976.175781" xlink:href="#DejaVuSans-76"/>
     <use x="1035.355469" xlink:href="#DejaVuSans-6f"/>
     <use x="1096.537109" xlink:href="#DejaVuSans-6c"/>
     <use x="1124.320312" xlink:href="#DejaVuSans-76"/>
     <use x="1183.5" xlink:href="#DejaVuSans-69"/>
     <use x="1211.283203" xlink:href="#DejaVuSans-6e"/>
     <use x="1274.662109" xlink:href="#DejaVuSans-67"/>
     <use x="1338.138672" xlink:href="#DejaVuSans-20"/>
     <use x="1369.925781" xlink:href="#DejaVuSans-77"/>
     <use x="1451.712891" xlink:href="#DejaVuSans-69"/>
     <use x="1479.496094" xlink:href="#DejaVuSans-74"/>
     <use x="1518.705078" xlink:href="#DejaVuSans-68"/>
     <use x="1582.083984" xlink:href="#DejaVuSans-20"/>
     <use x="1613.871094" xlink:href="#DejaVuSans-65"/>
     <use x="1675.394531" xlink:href="#DejaVuSans-70"/>
     <use x="1738.871094" xlink:href="#DejaVuSans-6f"/>
     <use x="1800.052734" xlink:href="#DejaVuSans-63"/>
     <use x="1855.033203" xlink:href="#DejaVuSans-68"/>
     <use x="1918.412109" xlink:href="#DejaVuSans-73"/>
    </g>
   </g>
  </g>
 </g>
 <defs>
  <clipPath id="pdaea2398d7">
   <rect height="266.112" width="357.12" x="57.6" y="41.472"/>
  </clipPath>
 </defs>
</svg>
